HIERARCHY
ROOT joint_Root
{
	OFFSET 0.0 0.0 0.0
	CHANNELS 6 Xposition Yposition Zposition Zrotation Xrotation Yrotation 
	JOINT Hips
	{
		OFFSET -0.726466 93.3139 -2.00062
		CHANNELS 6 Xposition Yposition Zposition Zrotation Xrotation Yrotation 
		JOINT Spine
		{
			OFFSET 15.7357 0.0 0.0
			CHANNELS 6 Xposition Yposition Zposition Zrotation Xrotation Yrotation 
			JOINT Chest
			{
				OFFSET 8.98455 -0.406207 0.0
				CHANNELS 6 Xposition Yposition Zposition Zrotation Xrotation Yrotation 
				JOINT Neck
				{
					OFFSET 16.3773 0.0 0.0
					CHANNELS 6 Xposition Yposition Zposition Zrotation Xrotation Yrotation 
					JOINT Head
					{
						OFFSET 6.45672 0.0 0.0
						CHANNELS 6 Xposition Yposition Zposition Zrotation Xrotation Yrotation 
						End Site
						{
							OFFSET 0.0 0.0 0.0
						}
					}
				}
				JOINT Shoulder_L
				{
					OFFSET 12.9942 -0.242716 4.98039
					CHANNELS 6 Xposition Yposition Zposition Zrotation Xrotation Yrotation 
					JOINT UpperArm_L
					{
						OFFSET 5.34809 0.0 0.0
						CHANNELS 6 Xposition Yposition Zposition Zrotation Xrotation Yrotation 
						JOINT LowerArm_L
						{
							OFFSET 24.3286 1.87007e-05 0.0
							CHANNELS 6 Xposition Yposition Zposition Zrotation Xrotation Yrotation 
							JOINT Hand_L
							{
								OFFSET 22.2916 0.0 0.0
								CHANNELS 6 Xposition Yposition Zposition Zrotation Xrotation Yrotation 
								End Site
								{
									OFFSET 0.0 0.0 0.0
								}
							}
						}
					}
				}
				JOINT Shoulder_R
				{
					OFFSET 12.9945 -0.242716 -4.98039
					CHANNELS 6 Xposition Yposition Zposition Zrotation Xrotation Yrotation 
					JOINT UpperArm_R
					{
						OFFSET -5.34813 0.0 0.0
						CHANNELS 6 Xposition Yposition Zposition Zrotation Xrotation Yrotation 
						JOINT LowerArm_R
						{
							OFFSET -24.3289 0.000322201 0.0
							CHANNELS 6 Xposition Yposition Zposition Zrotation Xrotation Yrotation 
							JOINT Hand_R
							{
								OFFSET -22.2915 -0.000108084 0.0
								CHANNELS 6 Xposition Yposition Zposition Zrotation Xrotation Yrotation 
								End Site
								{
									OFFSET 0.0 0.0 0.0
								}
							}
						}
					}
				}
			}
		}
		JOINT UpperLeg_L
		{
			OFFSET -2.19248 -6.46944 0.0
			CHANNELS 6 Xposition Yposition Zposition Zrotation Xrotation Yrotation 
			JOINT LowerLeg_L
			{
				OFFSET 39.0811 0.0 -1.23785e-05
				CHANNELS 6 Xposition Yposition Zposition Zrotation Xrotation Yrotation 
				JOINT Foot_L
				{
					OFFSET 40.9854 0.0 -1.26872e-05
					CHANNELS 6 Xposition Yposition Zposition Zrotation Xrotation Yrotation 
					JOINT Toes_L
					{
						OFFSET 11.7543 0.0 0.0
						CHANNELS 6 Xposition Yposition Zposition Zrotation Xrotation Yrotation 
						End Site
						{
							OFFSET 0.0 0.0 0.0
						}
					}
				}
			}
		}
		JOINT UpperLeg_R
		{
			OFFSET -2.19251 6.46944 0.0
			CHANNELS 6 Xposition Yposition Zposition Zrotation Xrotation Yrotation 
			JOINT LowerLeg_R
			{
				OFFSET -39.0811 -0.00228153 -0.0401928
				CHANNELS 6 Xposition Yposition Zposition Zrotation Xrotation Yrotation 
				JOINT Foot_R
				{
					OFFSET -40.9854 0.0 0.0
					CHANNELS 6 Xposition Yposition Zposition Zrotation Xrotation Yrotation 
					JOINT Toes_R
					{
						OFFSET -11.7543 0.0 0.0
						CHANNELS 6 Xposition Yposition Zposition Zrotation Xrotation Yrotation 
						End Site
						{
							OFFSET 0.0 0.0 0.0
						}
					}
				}
			}
		}
	}
}
MOTION
Frames:	7
Frame Time:	0.0333333
0.000000 0.000000 0.000000 0.000000 0.000000 -0.000000 -0.873302 91.858200 -0.897777 87.577700 -1.749380 4.774800 15.735700 0.000005 -0.000001 89.440900 84.857400 -88.920600 8.984550 -0.406207 -0.000000 2.519360 -0.124099 1.042230 16.377300 -0.000001 -0.000001 2.091270 -3.039430 1.013650 6.456720 -0.000001 -0.000000 1.201460 -2.027220 -5.068290 12.994200 -0.242716 4.980390 -90.122400 0.408323 -73.311500 5.348090 -0.000007 -0.000001 -63.553800 46.472200 -17.272800 24.328600 0.000019 0.000005 3.200930 6.598150 -25.952200 22.291600 -0.000001 0.000005 8.974350 5.557470 -9.063820 12.994500 -0.242716 -4.980390 88.036000 5.963180 -71.732900 -5.348130 -0.000001 -0.000004 -64.465400 37.233200 -17.655600 -24.328900 0.000322 -0.000009 2.361210 7.590800 -17.343000 -22.291500 -0.000108 -0.000004 9.161520 5.362070 -1.743590 -2.192480 -6.469440 -0.000000 -168.524000 -14.862900 -0.751759 39.081100 -0.000007 -0.000012 -0.206535 0.493391 22.714700 40.985400 -0.000006 -0.000013 -5.828030 3.311490 -65.329900 11.754300 -0.000000 0.000003 -0.000041 -0.000471 -16.595900 -2.192510 6.469440 -0.000001 174.007000 19.746500 -179.140000 -39.081100 -0.002282 -0.040193 -0.034740 0.101968 20.468600 -40.985400 0.000008 0.000006 -2.613090 3.123560 -64.462300 -11.754300 -0.000006 -0.000006 -0.005759 -0.068631 -19.366100
0.000000 0.000000 0.000000 0.000000 0.000000 -0.000000 -0.824919 91.856500 -0.922185 87.614200 -1.786160 4.894590 15.735700 0.000005 -0.000001 89.639400 84.796800 -89.197300 8.984550 -0.406207 -0.000000 2.640570 -0.085208 0.885297 16.377300 -0.000001 -0.000001 1.957350 -2.918870 0.877654 6.456720 -0.000001 -0.000000 1.206140 -2.006390 -5.124470 12.994200 -0.242716 4.980390 -90.102100 0.339016 -73.236000 5.348090 -0.000007 -0.000001 -63.056500 47.027700 -17.570400 24.328600 0.000019 0.000005 3.283340 6.622010 -26.448700 22.291600 -0.000001 0.000005 8.847820 5.560040 -9.189430 12.994500 -0.242716 -4.980390 88.072800 5.867450 -71.780900 -5.348130 -0.000001 -0.000004 -64.196400 36.190400 -18.045000 -24.328900 0.000322 -0.000009 2.473740 7.825380 -17.611000 -22.291500 -0.000108 -0.000004 8.876600 5.377100 -2.207080 -2.192480 -6.469440 -0.000000 -168.571000 -14.834200 -0.649788 39.081100 -0.000007 -0.000012 -0.206651 0.493028 22.741200 40.985400 -0.000006 -0.000013 -5.801710 3.255550 -65.347300 11.754300 -0.000000 0.000003 -0.000039 -0.000451 -16.595100 -2.192510 6.469440 -0.000001 173.904000 19.657800 -179.047000 -39.081100 -0.002282 -0.040193 -0.034491 0.101217 20.484200 -40.985400 0.000008 0.000006 -2.682770 3.138300 -64.440200 -11.754300 -0.000006 -0.000006 -0.005636 -0.067493 -19.319700
0.000000 0.000000 0.000000 0.000000 0.000000 -0.000000 -0.775900 91.850300 -0.966423 87.591100 -1.822180 4.982240 15.735700 0.000005 -0.000001 89.484400 84.739600 -89.106700 8.984550 -0.406207 -0.000000 2.754780 -0.111103 0.757323 16.377300 -0.000001 -0.000001 1.912630 -2.798520 0.734090 6.456720 -0.000001 -0.000000 0.954187 -1.871770 -5.172230 12.994200 -0.242716 4.980390 -90.069900 0.231820 -73.214000 5.348090 -0.000007 -0.000001 -61.680900 48.311600 -18.057900 24.328600 0.000019 0.000005 3.679900 6.971080 -27.918500 22.291600 -0.000001 0.000005 8.438920 5.567870 -9.580740 12.994500 -0.242716 -4.980390 88.112900 5.688160 -71.611500 -5.348130 -0.000001 -0.000004 -63.626000 33.771700 -18.935400 -24.328900 0.000322 -0.000009 2.594690 8.058950 -17.920200 -22.291500 -0.000108 -0.000004 10.198500 5.398720 -2.891190 -2.192480 -6.469440 -0.000000 -168.570000 -14.800600 -0.646337 39.081100 -0.000007 -0.000012 -0.207387 0.491830 22.863700 40.985400 -0.000006 -0.000013 -5.761420 3.238990 -65.396700 11.754300 -0.000000 0.000003 -0.000051 -0.000580 -16.600100 -2.192510 6.469440 -0.000001 173.881000 19.676000 -179.034000 -39.081100 -0.002282 -0.040193 -0.032012 0.094194 20.561000 -40.985400 0.000008 0.000006 -2.580850 3.167630 -64.437600 -11.754300 -0.000006 -0.000006 -0.005776 -0.068786 -19.372400
0.000000 0.000000 0.000000 0.000000 0.000000 -0.000000 -0.679510 91.860900 -1.053980 87.638500 -1.999680 5.027090 15.735700 0.000005 -0.000001 89.222700 84.698500 -88.933200 8.984550 -0.406207 -0.000000 2.836430 -0.156159 0.582220 16.377300 -0.000001 -0.000001 1.826180 -2.676680 0.635014 6.456720 -0.000001 -0.000000 0.749472 -1.605330 -5.279970 12.994200 -0.242716 4.980390 -89.994000 -0.019967 -73.277100 5.348090 -0.000007 -0.000001 -59.238800 50.437900 -18.674600 24.328600 0.000019 0.000005 4.171080 7.000000 -30.896200 22.291600 -0.000001 0.000005 8.218920 5.585530 -10.512500 12.994500 -0.242716 -4.980390 88.197400 5.380660 -71.447300 -5.348130 -0.000001 -0.000004 -62.485100 30.025000 -20.550800 -24.328900 0.000322 -0.000009 2.556670 7.754980 -18.317000 -22.291500 -0.000108 -0.000004 11.857400 5.404790 -3.089730 -2.192480 -6.469440 -0.000000 -168.680000 -14.931300 -0.629206 39.081100 -0.000007 -0.000012 -0.205331 0.486635 22.877200 40.985400 -0.000006 -0.000013 -5.695700 3.145430 -65.377100 11.754300 -0.000000 0.000003 -0.000046 -0.000531 -16.598200 -2.192510 6.469440 -0.000001 173.808000 19.485500 -179.094000 -39.081100 -0.002282 -0.040193 -0.029649 0.087924 20.554600 -40.985400 0.000008 0.000006 -2.600900 3.180580 -64.336200 -11.754300 -0.000006 -0.000006 -0.005762 -0.068660 -19.367300
0.000000 0.000000 0.000000 0.000000 0.000000 -0.000000 -0.564712 91.858900 -1.151880 87.685500 -2.183160 5.120970 15.735700 0.000005 -0.000001 88.557800 84.643600 -88.362600 8.984550 -0.406207 -0.000000 2.943810 -0.277566 0.397247 16.377300 -0.000001 -0.000001 1.784570 -2.576640 0.543402 6.456720 -0.000001 -0.000000 0.521291 -1.403040 -5.348650 12.994200 -0.242716 4.980390 -89.853800 -0.488226 -73.331800 5.348090 -0.000007 -0.000001 -55.125300 53.652000 -20.005600 24.328600 0.000019 0.000005 4.725640 6.682560 -35.386300 22.291600 -0.000001 0.000005 8.828830 5.614570 -12.252400 12.994500 -0.242716 -4.980390 88.378100 4.780890 -71.235400 -5.348130 -0.000001 -0.000004 -60.928500 25.175100 -23.037100 -24.328900 0.000322 -0.000009 2.462880 7.349050 -18.592900 -22.291500 -0.000108 -0.000004 12.871200 5.404770 -3.094380 -2.192480 -6.469440 -0.000000 -168.805000 -14.945400 -0.614028 39.081100 -0.000007 -0.000012 -0.206110 0.485919 22.985400 40.985400 -0.000006 -0.000013 -5.638950 2.950070 -65.419700 11.754300 -0.000000 0.000003 -0.000042 -0.000484 -16.596400 -2.192510 6.469440 -0.000001 173.676000 19.327900 -179.123000 -39.081100 -0.002282 -0.040193 -0.031953 0.093853 20.597900 -40.985400 0.000008 0.000006 -2.702120 3.264590 -64.244700 -11.754300 -0.000006 -0.000006 -0.005963 -0.070501 -19.442300
0.000000 0.000000 0.000000 0.000000 0.000000 -0.000000 -0.430596 91.881800 -1.249000 87.745600 -2.480110 5.206730 15.735700 0.000005 -0.000001 88.262800 84.612500 -88.166800 8.984550 -0.406207 -0.000000 3.004380 -0.330310 0.200604 16.377300 -0.000001 -0.000001 1.764480 -2.527430 0.463203 6.456720 -0.000001 -0.000000 0.302697 -1.337180 -5.447110 12.994200 -0.242716 4.980390 -89.721700 -0.919627 -73.161400 5.348090 -0.000007 -0.000001 -48.992700 57.165500 -22.335500 24.328600 0.000019 0.000005 5.902160 6.726420 -41.428600 22.291600 -0.000001 0.000005 9.678210 5.641660 -14.263400 12.994500 -0.242716 -4.980390 88.598300 4.067590 -70.967700 -5.348130 -0.000001 -0.000004 -58.923600 19.687100 -26.123800 -24.328900 0.000322 -0.000009 2.458110 7.185030 -18.951200 -22.291500 -0.000108 -0.000004 14.157400 5.399410 -2.918080 -2.192480 -6.469440 -0.000000 -168.930000 -15.121500 -0.485109 39.081100 -0.000007 -0.000012 -0.203125 0.480682 22.908000 40.985400 -0.000006 -0.000013 -5.556360 2.843020 -65.373900 11.754300 -0.000000 0.000003 -0.000045 -0.000519 -16.597800 -2.192510 6.469440 -0.000001 173.574000 19.079400 -179.147000 -39.081100 -0.002282 -0.040193 -0.028288 0.084368 20.538500 -40.985400 0.000008 0.000006 -2.600150 3.290220 -64.097900 -11.754300 -0.000006 -0.000006 -0.005829 -0.069273 -19.392300
0.000000 0.000000 0.000000 0.000000 0.000000 -0.000000 -0.300258 91.897200 -1.385830 87.752500 -2.735470 5.155720 15.735700 0.000005 -0.000001 88.668200 84.620900 -88.676100 8.984550 -0.406207 -0.000000 2.989250 -0.249473 -0.009278 16.377300 -0.000001 -0.000001 1.751980 -2.534520 0.479534 6.456720 -0.000001 -0.000000 -0.007212 -1.491180 -5.512120 12.994200 -0.242716 4.980390 -89.580000 -1.366560 -72.913400 5.348090 -0.000007 -0.000001 -40.789400 60.295600 -26.074000 24.328600 0.000019 0.000005 7.478160 6.655520 -48.546500 22.291600 -0.000001 0.000005 10.425300 5.664050 -16.508300 12.994500 -0.242716 -4.980390 88.804000 3.414270 -70.681800 -5.348130 -0.000001 -0.000004 -56.603600 13.547400 -29.378000 -24.328900 0.000322 -0.000009 2.358580 6.655580 -19.572200 -22.291500 -0.000108 -0.000004 15.620500 5.389860 -2.612520 -2.192480 -6.469440 -0.000000 -169.086000 -15.127900 -0.613683 39.081100 -0.000007 -0.000012 -0.200595 0.473411 22.963700 40.985400 -0.000006 -0.000013 -5.504360 2.535030 -65.374800 11.754300 -0.000000 0.000003 -0.000038 -0.000442 -16.594800 -2.192510 6.469440 -0.000001 173.564000 18.918100 -179.334000 -39.081100 -0.002282 -0.040193 -0.025618 0.077501 20.475500 -40.985400 0.000008 0.000006 -2.655100 3.365460 -63.905600 -11.754300 -0.000006 -0.000006 -0.005974 -0.070600 -19.446400
